<?xml version="1.0" encoding="utf-8"?>
<!-- Generator: Adobe Illustrator 23.1.0, SVG Export Plug-In . SVG Version: 6.00 Build 0)  -->
<svg version="1.1" id="Capa_1" xmlns="http://www.w3.org/2000/svg" xmlns:xlink="http://www.w3.org/1999/xlink" x="0px" y="0px"
	 viewBox="0 0 500 500" style="enable-background:new 0 0 500 500;" xml:space="preserve">
<style type="text/css">
	.st0{opacity:0.999;fill:#FCFCFC;enable-background:new    ;}
</style>
<path id="path848" class="st0" d="M254.4,14.3C124.3,14.4,18.8,119.9,18.8,250c0,130.2,105.5,235.7,235.7,235.7
	c44.8,0,88.7-12.8,126.5-36.9l-42.8-56l-3.2-29.7l-37-22.7l-81.6,12l-56.9-28l-27.2-34.5l91.6-60.5l-4.3-8.2l-10.6-5.9l68.1-67.5
	L254.5,95l-3.9-35.1l50.8,24.5V46.8l6-23L370.2,50l42.1,31.4l19.9,32.8l20.7,8.5C409.6,55.2,334.8,14.3,254.5,14.3
	C254.5,14.3,254.5,14.3,254.4,14.3L254.4,14.3z M686.4,221.8c0.8-0.5,1.7-1.1,2.5-1.6C688.1,220.8,687.3,221.3,686.4,221.8z"/>
</svg>
