<?xml version="1.0" encoding="utf-8"?>
<!-- Generator: Adobe Illustrator 23.1.0, SVG Export Plug-In . SVG Version: 6.00 Build 0)  -->
<svg version="1.1"
	 id="svg2244" xmlns:cc="http://creativecommons.org/ns#" xmlns:dc="http://purl.org/dc/elements/1.1/" xmlns:inkscape="http://www.inkscape.org/namespaces/inkscape" xmlns:rdf="http://www.w3.org/1999/02/22-rdf-syntax-ns#" xmlns:sodipodi="http://sodipodi.sourceforge.net/DTD/sodipodi-0.dtd" xmlns:svg="http://www.w3.org/2000/svg"
	 xmlns="http://www.w3.org/2000/svg" xmlns:xlink="http://www.w3.org/1999/xlink" x="0px" y="0px" viewBox="0 0 228 182"
	 style="enable-background:new 0 0 228 182;" xml:space="preserve">
<style type="text/css">
	.st0{fill:#FAFAFA;}
</style>
<sodipodi:namedview  bordercolor="#666666" borderopacity="1.0" id="base" inkscape:current-layer="layer1" inkscape:cx="337.14286" inkscape:cy="717.14286" inkscape:document-rotation="0" inkscape:document-units="mm" inkscape:pageopacity="0.0" inkscape:pageshadow="2" inkscape:window-height="715" inkscape:window-maximized="1" inkscape:window-width="1366" inkscape:window-x="-8" inkscape:window-y="-8" inkscape:zoom="0.35" pagecolor="#ffffff" showgrid="false" units="px">
	</sodipodi:namedview>
<g id="layer1" inkscape:groupmode="layer" inkscape:label="Capa 1">
	<g id="g851" transform="matrix(0.26458333,0,0,0.26458333,-4.2064716,-104.83459)">
		<path class="st0" d="M642.2,544.9c-11.4,0-20.7,9.3-20.7,20.7c0,1.6,0.2,3.1,0.5,4.5c-172.9,73.4-403.8,127.4-482.8,109
			c-36.6-8.2-42.4-25.9-17.3-53.9c8.2-9.9,12.3-15.6,9-13.6c-79.8,55.9-74.4,89.2,14.4,88.8l38.3-0.4l4.5,30.4
			c4.5,32.1,18.5,74.4,25.5,79c2.5,1.2,16,1.2,30.4-0.4l25.9-2.5l-7.4-13.2c-11.1-19.3-25.5-69.9-23.9-85.1l1.2-13.2l55.5-11.9
			c114.5-23.6,237.6-63.2,328.1-108.5c3.4,6.8,10.4,11.6,18.6,11.6c11.4,0,20.7-9.3,20.7-20.7C663,554.2,653.6,544.9,642.2,544.9z
			 M642.2,578.3c-7,0-12.6-5.7-12.6-12.6c0-7,5.7-12.6,12.6-12.6c7,0,12.6,5.7,12.6,12.6S649.2,578.3,642.2,578.3z"/>
		<path class="st0" d="M730.6,912c-52.6,29.2-144.4,46.9-208.9,39.9c-34.5-3.7-104.9-20.6-101.2-24.3c0.8-0.8,30.8-11.5,67-23.4
			c56.2-19.1,135.4-51.4,154.9-63.4c3.8,5,9.8,8.2,16.5,8.2c11.4,0,20.7-9.3,20.7-20.7c0-11.4-9.3-20.7-20.7-20.7
			s-20.7,9.3-20.7,20.7c0,3.5,0.9,6.7,2.4,9.6c-10.7,5.4-32.8,14.9-52.6,22.7c-191.3,75.6-399.4,106.5-413.8,61.6
			c-2.1-6.6,0.8-13.2,10.7-25.9l14-17.3l-12.3,9c-24.7,18.5-30.4,24.3-36.6,35.8c-7.4,14.8-2.9,25.5,13.2,31.7
			c18.1,7,86.8,4.9,141.9-4.5l51.4-8.6l21.8,9c59.2,23.4,157.9,31.7,220.9,18.1c39.5-8.2,90.9-27.6,120.1-45.2
			C747.5,907,756.5,897.6,730.6,912z M658.9,815.6c7,0,12.6,5.7,12.6,12.6c0,7-5.7,12.6-12.6,12.6c-7,0-12.6-5.7-12.6-12.6
			C646.3,821.3,651.9,815.6,658.9,815.6z"/>
		<path class="st0" d="M505.2,425.4c-12.3,0-33.7,1.6-47.3,3.7c-115.8,17-221.4,95.1-257.2,189.1l0,0c-0.2,0.6-0.4,1.2-0.7,1.9
			c-0.3,0.9-0.6,1.8-1,2.6c-3.2,9.1-5.7,17.1-7.5,24c-0.9,3.1-1.6,5.8-2,8.2c-2.7,11.7-3.2,18.2-3.2,18.2l49.6-1.7l0,0l0,0l7-30
			c26.3-108.6,130-193.3,260.3-212.2l24.7-3.7h-22.7V425.4z"/>
		<path id="path847" class="st0" d="M270,806.7l-54.6,5.7c0,0-5.8-8-6.2-8.8C208.8,802.8,270,806.7,270,806.7L270,806.7z"/>
		<path class="st0" d="M803.9,619.9c-14.4,0-26.1,11.7-26.1,26.1c0,4.3,1.1,8.3,2.9,11.9c-4.3,2.5-11.4,6.7-23.4,12.6
			c-177.6,83.9-426.9,149.7-564.2,149.3c-51.8-0.4-74-5.3-87.2-19.3c-11.9-12.7-8.2-25.9,16-52.2l19.3-21l-25.9,18.1
			c-55.5,38.7-69.1,69.9-37.8,88c12.8,7.8,21.8,8.6,83.9,9l69.5,0.4l21,22.6c18.5,19.9,43.6,41.8,60.1,52.3l0,0
			c0.4,0.3,0.9,0.6,1.5,0.9c1.7,1,3.2,2,4.7,2.7c0.5,0.3,1.1,0.5,1.7,0.7c4.7,2.4,9.6,4.7,9.6,4.7l28.7-7.1
			c10.5-1.9,17.1-3.3,20.1-4.9l6.1-1.5l-9.3-7c-4-3.1-10.2-7.2-18.6-12.9c-31.3-21-68.3-55.5-64.2-60c1.6-1.2,23.4-7,48.9-12.3
			c141.1-30.4,303.5-87.2,417-145.6l24.8-13.9c4.8,6.4,12.4,10.6,20.9,10.6c14.4,0,26.1-11.7,26.1-26.1
			C830,631.6,818.3,619.9,803.9,619.9z M803.9,662.3c-9,0-16.4-7.3-16.4-16.4c0-9,7.3-16.4,16.4-16.4c9,0,16.4,7.3,16.4,16.4
			S812.9,662.3,803.9,662.3z"/>
	</g>
</g>
</svg>
