<?xml version="1.0" encoding="utf-8"?>
<!-- Generator: Adobe Illustrator 23.1.0, SVG Export Plug-In . SVG Version: 6.00 Build 0)  -->
<svg version="1.1" id="Capa_1" xmlns="http://www.w3.org/2000/svg" xmlns:xlink="http://www.w3.org/1999/xlink" x="0px" y="0px"
	 viewBox="0 0 1080 1080" style="enable-background:new 0 0 1080 1080;" xml:space="preserve">
<style type="text/css">
	.st0{fill:#FAFAFA;}
</style>
<g>
	<g>
		<path class="st0" d="M328,593.6c-2.7,0-5.3,0.2-7.9,0.4c4.9,6.9,7.9,15.4,7.9,24.5c0,23.3-18.9,42.3-42.3,42.3
			c-14.6,0-27.4-7.4-35-18.6c-5.5,11.3-8.6,23.9-8.6,37.3c0,47.4,38.4,85.9,85.9,85.9c47.4,0,85.9-38.4,85.9-85.9
			S375.4,593.6,328,593.6z"/>
	</g>
	<g>
		<path class="st0" d="M712.6,593.6c-2.7,0-5.3,0.2-7.9,0.4c4.9,6.9,7.9,15.4,7.9,24.5c0,23.3-18.9,42.3-42.3,42.3
			c-14.6,0-27.4-7.4-35-18.6c-5.5,11.3-8.6,23.9-8.6,37.3c0,47.4,38.4,85.9,85.9,85.9c47.4,0,85.9-38.4,85.9-85.9
			S760.1,593.6,712.6,593.6z"/>
	</g>
	<path class="st0" d="M956.3,332.4c-8.6-3.1-18.1,1.4-21.2,9.9c-1,2.7-21.6,55.1-110,81V267.9L938,226.6c6.6-2.4,10.9-8.6,10.9-15.6
		s-4.4-13.2-10.9-15.6L521.7,44.1c-3.8-1.4-7.9-1.3-11.7,0.1L120.1,195.5c-6.4,2.5-10.6,8.6-10.6,15.4c0,6.8,4.2,13,10.5,15.5
		l85.1,33.6v160.1c-79.6-26.8-98.6-75.1-99.5-77.6c-3-8.7-12.5-13.2-21.2-10.2s-13.2,12.5-10.2,21.2c1.2,3.5,27.9,75.4,143.6,105
		c0.2,0,0.4,0.1,0.6,0.2c18.4,4.7,39,8.3,62.1,10.4c10.1,0.9,19.8,2.5,29.2,4.5c-101.6,9.2-181.6,94.9-181.6,198.9
		C128.3,782.4,217.9,872,328,872c17.9,0,35.3-2.4,51.8-6.9c0.8,1.8,2,3.5,3.6,5L508.9,990c0.4,0.4,0.8,0.6,1.2,1
		c0.4,0.3,0.7,0.6,1.1,0.9c0.6,0.4,1.1,0.7,1.7,0.9c0.4,0.2,0.7,0.4,1.1,0.6c0.7,0.3,1.4,0.5,2.1,0.6c0.3,0.1,0.7,0.2,1,0.3
		c1,0.2,2.1,0.3,3.2,0.3c1.1,0,2.1-0.1,3.2-0.3c0.3-0.1,0.7-0.2,1-0.3c0.7-0.2,1.4-0.4,2.1-0.6c0.4-0.2,0.8-0.4,1.1-0.6
		c0.6-0.3,1.2-0.6,1.7-0.9c0.4-0.3,0.7-0.6,1.1-0.9c0.4-0.3,0.8-0.6,1.2-1l125.5-119.9c1.5-1.5,2.7-3.2,3.6-5
		c16.5,4.4,33.9,6.9,51.8,6.9c110.1,0,199.7-89.6,199.7-199.7c0-104-79.9-189.7-181.6-198.9c9.4-2,19.2-3.6,29.3-4.5
		c18.8-1.7,35.9-4.4,51.5-7.9c0.3,0,0.5-0.1,0.7-0.2C936.8,433.1,965,357,966.3,353.4C969.4,344.9,964.9,335.5,956.3,332.4z
		 M516.2,77.4L883.8,211l-167,61.1l-189.1-78.2c-9.9-4.1-21.2,0.6-25.3,10.5c-4.1,9.9,0.6,21.2,10.5,25.3l150.1,62l-148.9,54.5
		L228.2,233.4l0,0l-56.5-22.3L516.2,77.4z M156,672.3c0-94.9,77.2-172,172-172c34.2,0,66,10,92.8,27.3c20.5,16.4,37.4,34,50.5,49.7
		c18.1,27.2,28.7,59.9,28.7,95c0,94.9-77.2,172-172,172S156,767.1,156,672.3z M520.3,955.1l-107-102.2
		c51.8-24.6,91.3-70.7,107-126.8c15.7,56,55.2,102.2,107,126.8L520.3,955.1z M712.6,500.3c94.9,0,172,77.2,172,172
		s-77.2,172-172,172s-172-77.2-172-172c0-35.4,10.7-68.3,29.1-95.6c12.8-15.4,29.3-32.5,49.2-48.5
		C645.9,510.5,678.1,500.3,712.6,500.3z M757,435.9c-128.2,11.5-206.2,105.5-236.7,150.9c-30.5-45.4-108.5-139.4-236.7-150.9
		c-16.6-1.5-31.6-3.8-45.3-6.7v-156l269.5,106.4c2,0.8,4,1.2,6.1,1.2c1.9,0,3.9-0.3,5.7-1l173.6-63.5v71.1
		c0,10.7,8.7,19.4,19.4,19.4s19.4-8.7,19.4-19.4v-85.2l59.9-21.9v151.2C781.1,433.1,769.5,434.7,757,435.9z"/>
</g>
</svg>
