<?xml version="1.0" encoding="utf-8"?>
<!-- Generator: Adobe Illustrator 23.1.0, SVG Export Plug-In . SVG Version: 6.00 Build 0)  -->
<svg version="1.1" id="svg4525" xmlns="http://www.w3.org/2000/svg" xmlns:xlink="http://www.w3.org/1999/xlink" x="0px" y="0px"
	 viewBox="0 0 2199 2500" style="enable-background:new 0 0 2199 2500;" xml:space="preserve">
<style type="text/css">
	.st0{opacity:0.986;fill:#EBEBEB;fill-opacity:0;enable-background:new    ;}
	.st1{fill:#FAFAFA;}
</style>
<path id="path5159" class="st0" d="M945,1934.1c-28.3-8.6-168.1-46.3-310.5-84.9l-258.1-69.5v-129.5c0-126.9,0-129.5,12.9-125.2
	c6.9,2.6,101.2,28.3,209.3,58.3l196.4,54l1.7-574.6l1.7-574.6h214.4v730.7c0,580.6-1.7,730.7-7.7,730.7
	C1000.8,1948.7,973.3,1941.8,945,1934.1L945,1934.1z"/>
<path class="st1" d="M-0.1,0.1l204.1,2247l893.7,252.1l898.8-253.9L2198.9,1L-0.1,0.1z M1017.1,1955.5l-644.9-174.1l-0.9-263.3
	l424.5,115.8l2.6-1151.8h218.7V1955.5z M1843.8,1081.6l-59.2,719.6v0L1192,1955.5l-4.3-260.7l428.8-114.1l6-212.7l-425.4,72.9
	l-9.4-955.4l704.1-3.4L1873,744.6l-466.6,1.7v384.2L1843.8,1081.6z M1101.1,200L1101.1,200L1101.1,200L1101.1,200z"/>
</svg>
