<?xml version="1.0" encoding="utf-8"?>
<!-- Generator: Adobe Illustrator 23.1.0, SVG Export Plug-In . SVG Version: 6.00 Build 0)  -->
<svg version="1.1" id="Capa_1" xmlns="http://www.w3.org/2000/svg" xmlns:xlink="http://www.w3.org/1999/xlink" x="0px" y="0px"
	 viewBox="0 0 500 500" style="enable-background:new 0 0 500 500;" xml:space="preserve">
<style type="text/css">
	.st0{fill:#FCFCFC;}
</style>
<g>
	<g>
		<path class="st0" d="M286.3,471.4c-1.6,0-2.3-0.8-2.3-2.5V288.3h-56.8c-1.9,0-2.9-0.8-2.9-2.5v-67.2c0-1.6,1-2.5,2.9-2.5h56.8
			V44.6c0-1.6,0.8-2.5,2.3-2.5h146.4c1.9,0,2.9,0.8,2.9,2.5v67.2c0,1.6-1,2.5-2.9,2.5h-80.8v284.9h80.8c1.9,0,2.9,0.8,2.9,2.5V469
			c0,1.6-1,2.5-2.9,2.5H286.3z"/>
	</g>
	<g>
		<path class="st0" d="M66.7,471.4c-1.6,0-2.3-1-2.3-3.1l0.6-423.7c0-1.6,0.8-2.5,2.3-2.5h65.6c1.6,0,2.3,0.8,2.3,2.5l0.6,423.7
			c0,2.1-1,3.1-2.9,3.1H66.7z"/>
	</g>
</g>
</svg>
