<?xml version="1.0" encoding="utf-8"?>
<!-- Generator: Adobe Illustrator 23.1.0, SVG Export Plug-In . SVG Version: 6.00 Build 0)  -->
<svg version="1.1" id="Capa_1" xmlns="http://www.w3.org/2000/svg" xmlns:xlink="http://www.w3.org/1999/xlink" x="0px" y="0px"
	 viewBox="0 0 256 230" style="enable-background:new 0 0 256 230;" xml:space="preserve">
<style type="text/css">
	.st0{fill:#FAFAFA;}
</style>
<g>
	<path class="st0" d="M74.3,60.3c1,0,2-0.2,3-0.5l107.3-41c3.6-1.4,5.1-4.9,3.5-7.9s-5.9-4.2-9.6-2.9l-107.3,41
		c-3.6,1.4-5.1,4.9-3.5,7.9C69.1,59.1,71.6,60.3,74.3,60.3z M178.6,33.1l-107.3,41c-3.6,1.4-5.1,4.9-3.5,7.9
		c1.2,2.1,3.8,3.4,6.5,3.4c1,0,2-0.2,3-0.5l107.3-41c3.6-1.4,5.1-4.9,3.5-7.9C186.5,33.1,182.3,31.8,178.6,33.1z M178.6,58.4
		l-107.3,41c-3.6,1.4-5.1,4.9-3.5,7.9c1.2,2.1,3.8,3.4,6.5,3.4c1,0,2-0.2,3-0.5l107.3-41c3.6-1.4,5.1-4.9,3.5-7.9
		C186.5,58.3,182.3,57,178.6,58.4z M74.3,35.3c1,0,2-0.2,3-0.5l49.5-18.9c3.6-1.4,5.1-4.9,3.5-7.9s-5.9-4.2-9.6-2.9l-49.5,19
		c-3.6,1.4-5.1,4.9-3.5,7.8C69.1,34.1,71.6,35.3,74.3,35.3z M178.6,83.5l-37.9,14.6c-2.5,1-4.1,3-4.1,5.4V133H120v-22
		c0-3.2-3.2-5.9-7.2-5.9c-3.9,0-7.2,2.7-7.2,5.9v22H95.4c-3,0-5.4,2.3-4.8,4.7l2.4,11.1c0.4,1.9,2.5,3.3,4.8,3.3H123l-26.7,4
		c-1.9,0.3-3.2,1.8-2.9,3.4c0.3,1.4,1.8,2.4,3.5,2.4c0.2,0,0.4,0,0.7,0l61.2-9.1c1-0.2,1.8-0.6,2.3-1.2c1.3-0.6,2.2-1.6,2.4-2.9
		l2.1-11.1c0.5-2.4-1.9-4.6-4.8-4.6H151v-25.7l33.8-13c3.6-1.4,5.1-4.9,3.4-7.9C186.5,83.4,182.2,82.1,178.6,83.5z M157.4,161.9
		L96.3,171c-1.9,0.3-3.2,1.8-2.9,3.4c0.3,1.4,1.8,2.4,3.5,2.4c0.2,0,0.4,0,0.7,0l61.2-9.1c1.9-0.3,3.2-1.8,2.9-3.4
		C161.3,162.7,159.4,161.6,157.4,161.9z M157.4,177.5l-61.2,9.1c-1.9,0.3-3.2,1.8-2.9,3.4c0.3,1.4,1.8,2.4,3.5,2.4
		c0.2,0,0.4,0,0.7,0l61.2-9.1c1.9-0.3,3.2-1.8,2.9-3.4C161.3,178.3,159.4,177.2,157.4,177.5z M150.1,193.2l-45.6,6.4
		c-1.9,0.3-3.3,1.8-2.9,3.4c0.3,1.4,1.8,2.5,3.5,2.5c0.2,0,0.4,0,0.6,0l45.6-6.4c1.9-0.3,3.3-1.8,2.9-3.4
		C154,194,152.1,193,150.1,193.2z"/>
</g>
</svg>
