<?xml version="1.0" encoding="utf-8"?>
<!-- Generator: Adobe Illustrator 23.1.0, SVG Export Plug-In . SVG Version: 6.00 Build 0)  -->
<svg version="1.1" id="Capa_1" xmlns="http://www.w3.org/2000/svg" xmlns:xlink="http://www.w3.org/1999/xlink" x="0px" y="0px"
	 viewBox="0 0 500 500" style="enable-background:new 0 0 500 500;" xml:space="preserve">
<style type="text/css">
	.st0{display:none;}
	.st1{display:inline;}
	.st2{fill:#C12D3D;}
	.st3{fill:#C02432;}
	.st4{display:inline;fill:#FFFFFF;}
	.st5{fill:#FAFAFA;}
	.st6{fill:#31A1BD;}
</style>
<g class="st0">
</g>
<g id="angular" class="st0">
	<g class="st1">
		<polygon class="st2" points="42.3,95.6 74.7,375.8 255.8,478.7 255.8,21.3 		"/>
		<polygon class="st3" points="469.3,95.6 436.9,375.8 255.8,478.7 255.8,21.3 		"/>
	</g>
	<path class="st4" d="M339.1,367h51.2L255.8,66.3L121.3,367h51.2l26.9-65.6h112.7L339.1,367z M218,256.2l37.8-91.9l37.8,91.9H218z"
		/>
</g>
<path class="st5" d="M447.4,75.3C433.9,26.3,250,18.9,250,18.9S66.1,26.3,52.6,75.3C20.8,191.2,56.3,397.7,250,481.1
	C443.7,397.7,479.2,191.2,447.4,75.3z M261.6,352.7v36.4H250h-11.6v-36.4C98.1,224.5,250,89.8,250,89.8S401.9,224.5,261.6,352.7z"/>
<g id="react" class="st0">
	<g class="st1">
		<path class="st6" d="M158.6,455.6c-8.7,0-16.7-2-23.8-6.1c-23.7-13.7-32.5-48-24.8-96.6c7.1-45.2,27.6-98.7,57.5-150.6l0,0
			c30-51.9,66.1-96.4,101.6-125.1c38.3-31,72.4-40.5,96.1-26.8s32.5,48,24.8,96.6c-7.1,45.2-27.6,98.7-57.5,150.6
			c-30,51.9-66.1,96.4-101.6,125.1C204,444.5,179.2,455.6,158.6,455.6z M176.9,207.8l9.3,5.4c-28.7,49.7-48.2,100.5-54.9,143.2
			c-6.1,38.6-0.9,65.8,14.3,74.5c30.2,17.4,106.7-37.5,168.2-144c28.7-49.7,48.2-100.5,54.9-143.2c6.1-38.6,0.9-65.8-14.3-74.5
			c-15.2-8.8-41.3,0.3-71.7,24.9c-33.6,27.1-67.8,69.5-96.5,119.1L176.9,207.8z"/>
	</g>
	<g class="st1">
		<path class="st6" d="M341.4,455.6c-20.6,0-45.4-11.2-72.3-32.9c-35.6-28.8-71.7-73.2-101.6-125.1c-30-51.9-50.4-105.4-57.5-150.6
			c-7.7-48.6,1.1-82.9,24.8-96.6s57.8-4.1,96.1,26.8c35.6,28.8,71.7,73.2,101.6,125.1c30,51.9,50.4,105.4,57.5,150.6
			c7.7,48.6-1.1,82.9-24.8,96.6C358.2,453.6,350.2,455.6,341.4,455.6z M158.9,65.9c-5.1,0-9.5,1.1-13.3,3.3
			c-15.2,8.8-20.4,35.9-14.3,74.5c6.7,42.6,26.2,93.5,54.9,143.2c54,93.5,119.5,147.2,155.1,147.2c5,0,9.4-1,13.1-3.2
			c15.2-8.8,20.4-35.9,14.3-74.5c-6.7-42.6-26.2-93.5-54.9-143.2l0,0c-28.7-49.7-63-92-96.5-119.1C194.5,75.6,174.1,65.9,158.9,65.9
			z"/>
	</g>
	<g class="st1">
		<path class="st6" d="M250,345.2c-60,0-116.5-9-159.2-25.5c-45.9-17.7-71.2-42.4-71.2-69.8s25.3-52.1,71.2-69.8
			c42.7-16.4,99.2-25.5,159.2-25.5s116.5,9,159.2,25.5c45.9,17.7,71.2,42.4,71.2,69.8s-25.3,52.1-71.2,69.8
			C366.5,336.2,310,345.2,250,345.2z M250,176.3c-123.1,0-208.8,38.8-208.8,73.7c0,34.8,85.8,73.7,208.8,73.7
			c123.1,0,208.8-38.8,208.8-73.7C458.8,215.2,373.1,176.3,250,176.3z"/>
	</g>
	<g class="st1">
		<circle class="st6" cx="248.3" cy="250" r="38.9"/>
	</g>
</g>
<g id="Capa_5">
</g>
</svg>
