<?xml version="1.0" encoding="utf-8"?>
<!-- Generator: Adobe Illustrator 23.1.0, SVG Export Plug-In . SVG Version: 6.00 Build 0)  -->
<svg version="1.1" id="Capa_1" xmlns="http://www.w3.org/2000/svg" xmlns:xlink="http://www.w3.org/1999/xlink" x="0px" y="0px"
	 viewBox="0 0 256 256" style="enable-background:new 0 0 256 256;" xml:space="preserve">
<style type="text/css">
	.st0{fill:#FAFAFA;}
</style>
<path class="st0" d="M128,0H0v128v128h128h128V128V0H128z M146.7,139.3h-16.7h-16.7v47.3V234h-11.8H89.9v-47.3v-47.3H73.2H56.5
	l0.1-10.5l0.1-10.4l44.7-0.1c24.6,0,44.9,0,45,0.2c0.2,0.1,0.3,4.9,0.3,10.6V139.3z M233.8,214.5c-4.1,10.6-14.1,17.9-28.3,20.3
	c-4.4,0.8-14.8,0.7-19.5-0.2c-10.3-1.8-20-6.9-26-13.6c-2.4-2.6-6.9-9.4-6.7-9.9c0.1-0.2,1.2-0.8,2.4-1.5c1.1-0.7,5.4-3.1,9.5-5.5
	l7.4-4.3l1.5,2.3c2.2,3.3,6.9,7.8,9.7,9.3c8.2,4.3,19.4,3.7,24.9-1.3c2.4-2.2,3.3-4.4,3.3-7.7c0-3-0.4-4.3-1.9-6.5
	c-2-2.8-6.1-5.2-17.6-10.2c-13.2-5.7-18.9-9.2-24.1-14.8c-3-3.3-5.9-8.5-7-12.8c-1-3.6-1.2-12.7-0.4-16.3
	c2.7-12.8,12.4-21.7,26.3-24.3c4.5-0.9,15-0.5,19.4,0.6c6.5,1.6,11.5,4.5,16,9.2c2.4,2.5,5.9,7.1,6.1,8.2c0.1,0.3-11.1,7.8-17.8,12
	c-0.2,0.2-1.2-0.9-2.3-2.5c-3.3-4.8-6.7-6.9-12-7.2c-7.8-0.5-12.8,3.5-12.7,10.3c0,2,0.3,3.2,1.1,4.8c1.7,3.5,4.9,5.6,14.8,10
	c18.3,7.9,26.2,13.1,31,20.5C236.3,191.6,237.5,204.7,233.8,214.5z"/>
</svg>
